<?xml version="1.0" encoding="UTF-8" standalone="no"?>
<svg
   xmlns:dc="http://purl.org/dc/elements/1.1/"
   xmlns:cc="http://creativecommons.org/ns#"
   xmlns:rdf="http://www.w3.org/1999/02/22-rdf-syntax-ns#"
   xmlns:svg="http://www.w3.org/2000/svg"
   xmlns="http://www.w3.org/2000/svg"
   xmlns:sodipodi="http://sodipodi.sourceforge.net/DTD/sodipodi-0.dtd"
   xmlns:inkscape="http://www.inkscape.org/namespaces/inkscape"
   version="1.1"
   id="svg5033"
   xml:space="preserve"
   width="1920"
   height="1080"
   viewBox="0 0 1920 1080"
   sodipodi:docname="gruvbox-light-ubuntu-scalable.svg"
   inkscape:version="1.0.1 (3bc2e813f5, 2020-09-07)"
   inkscape:export-filename="/home/fjall/1577101987penguin-silhouette-3-freesvg.org.png"
   inkscape:export-xdpi="96"
   inkscape:export-ydpi="96"><metadata
     id="metadata5039"><rdf:RDF><cc:Work
         rdf:about=""><dc:format>image/svg+xml</dc:format><dc:type
           rdf:resource="http://purl.org/dc/dcmitype/StillImage" /><dc:title></dc:title></cc:Work></rdf:RDF></metadata><defs
     id="defs5037"><marker
       style="overflow:visible"
       id="Arrow1Lstart"
       refX="0"
       refY="0"
       orient="auto"
       inkscape:stockid="Arrow1Lstart"
       inkscape:isstock="true"><path
         transform="matrix(0.8,0,0,0.8,10,0)"
         style="fill:#c53d3d;fill-opacity:0.795004;fill-rule:evenodd;stroke:none;stroke-width:1pt;stroke-opacity:1"
         d="M 0,0 5,-5 -12.5,0 5,5 Z"
         id="path2155" /></marker><clipPath
       clipPathUnits="userSpaceOnUse"
       id="clipPath5049"><path
         d="M 0,600 H 600 V 0 H 0 Z"
         id="path5047"
         inkscape:connector-curvature="0" /></clipPath><marker
       style="overflow:visible"
       id="Arrow1Lstart-5"
       refX="0"
       refY="0"
       orient="auto"
       inkscape:stockid="Arrow1Lstart"
       inkscape:isstock="true"><path
         transform="matrix(0.8,0,0,0.8,10,0)"
         style="fill:#c53d3d;fill-opacity:0.795004;fill-rule:evenodd;stroke:none;stroke-width:1pt;stroke-opacity:1"
         d="M 0,0 5,-5 -12.5,0 5,5 Z"
         id="path2155-3" /></marker><clipPath
       clipPathUnits="userSpaceOnUse"
       id="clipPath5049-5"><path
         d="M 0,600 H 600 V 0 H 0 Z"
         id="path5047-6"
         inkscape:connector-curvature="0" /></clipPath></defs><sodipodi:namedview
     pagecolor="#ffffff"
     bordercolor="#666666"
     borderopacity="1"
     objecttolerance="10"
     gridtolerance="10"
     guidetolerance="10"
     inkscape:pageopacity="0"
     inkscape:pageshadow="2"
     inkscape:window-width="1920"
     inkscape:window-height="1052"
     id="namedview5035"
     showgrid="false"
     inkscape:zoom="0.3017281"
     inkscape:cx="1160.8798"
     inkscape:cy="1126.162"
     inkscape:window-x="0"
     inkscape:window-y="28"
     inkscape:window-maximized="1"
     inkscape:current-layer="g5041"
     inkscape:document-rotation="0"
     inkscape:snap-global="false"
     showguides="true"
     inkscape:guide-bbox="true"
     fit-margin-top="0"
     fit-margin-left="0"
     fit-margin-right="0"
     fit-margin-bottom="0"><inkscape:grid
       type="xygrid"
       id="grid997"
       originx="725.49429"
       originy="-129.70111" /></sodipodi:namedview><g
     id="g5041"
     inkscape:groupmode="layer"
     inkscape:label="penguin-clipart-publicdomainvectors.org"
     transform="matrix(1.3333333,0,0,-1.3333333,725.49429,670.29889)"><g
       id="g956"
       transform="translate(46.384326,0.71141601)" /><g
       id="g944"
       transform="translate(96.725563,0.71141601)" /><g
       id="g1034"
       inkscape:export-filename="/home/fjall/g103411.png"
       inkscape:export-xdpi="128"
       inkscape:export-ydpi="128"><rect
         style="fill:#ebdbb2;fill-opacity:1;fill-rule:nonzero;stroke-width:78.7272;stroke-linecap:round;stroke-linejoin:round;paint-order:stroke markers fill"
         id="rect835"
         width="1440"
         height="810"
         x="-544.12073"
         y="-502.72418"
         transform="scale(1,-1)" /><path
         id="rect2943"
         style="fill:#8ec07c;fill-opacity:1;stroke:none;stroke-width:4.69369;stroke-linejoin:round;stroke-miterlimit:4;stroke-dasharray:none;stroke-opacity:1;paint-order:stroke markers fill"
         d="M -544.12073,178.26567 V 17.182665 H 528.6547 c -10.9413,13.933995 -19.11053,30.14682 -23.67188,47.812501 9.49283,7.735778 15.55958,19.51983 15.55958,32.727541 0,13.209153 -6.06525,24.991793 -15.55815,32.729003 4.56247,17.66594 12.73267,33.87956 23.6748,47.81396 z M 478.3402,127.77251 c 16.59487,0 30.04695,-13.44922 30.04695,-30.049803 0,-16.596263 -13.45208,-30.048346 -30.04695,-30.048346 -16.60058,0 -30.05273,13.452083 -30.05273,30.048346 0,16.600583 13.45215,30.049803 30.05273,30.049803 z" /><path
         id="rect2945"
         style="fill:#83a598;fill-opacity:1;stroke:none;stroke-width:4.06485;stroke-linejoin:round;stroke-miterlimit:4;stroke-dasharray:none;stroke-opacity:1;paint-order:stroke markers fill"
         d="M -544.12073,137.99565 V 17.182665 H 528.6547 c -10.9413,13.933995 -19.11053,30.14682 -23.67188,47.812501 9.49283,7.735778 15.55958,19.51983 15.55958,32.727541 0,13.209153 -6.06525,24.991793 -15.55815,32.729003 0.65782,2.54708 1.39935,5.05968 2.20462,7.54394 z M 478.3402,127.77251 c 16.59487,0 30.04695,-13.44922 30.04695,-30.049803 0,-16.596263 -13.45208,-30.048346 -30.04695,-30.048346 -16.60058,0 -30.05273,13.452083 -30.05273,30.048346 0,16.600583 13.45215,30.049803 30.05273,30.049803 z" /><path
         id="path940"
         style="fill:#fabd2f;fill-opacity:1;stroke:none;stroke-width:3.31895;stroke-linejoin:round;stroke-miterlimit:4;stroke-dasharray:none;stroke-opacity:1;paint-order:stroke markers fill"
         d="M -544.12073,97.724169 V 17.182665 H 528.6547 c -10.9413,13.933995 -19.11053,30.14682 -23.67188,47.812501 9.49283,7.735778 15.55958,19.51983 15.55958,32.727541 0,4.87e-4 0,7.5e-4 0,0.0015 h -12.15525 c 0,-4.95e-4 0,-7.5e-4 0,-0.0015 0,-16.596263 -13.45208,-30.048346 -30.04695,-30.048346 -16.60058,0 -30.05273,13.452083 -30.05273,30.048346 0,4.87e-4 0,7.5e-4 0,0.0015 z" /><path
         id="path949"
         style="fill:#fb4934;fill-opacity:1;stroke:none;stroke-width:2.34684;stroke-linejoin:round;stroke-miterlimit:4;stroke-dasharray:none;stroke-opacity:1;paint-order:stroke markers fill"
         d="M -544.12073,57.454148 V 17.182665 H 528.6547 c -9.36428,11.925622 -16.6899,25.524863 -21.46875,40.271483 z" /><path
         id="path882"
         d="m 692.90571,204.26288 c 14.37283,-8.3003 32.74638,-3.37702 41.04094,10.99149 8.29882,14.37428 3.37985,32.74639 -10.99443,41.04525 -14.37139,8.29595 -32.74351,3.37411 -41.04232,-11.00017 -8.29594,-14.36851 -3.37415,-32.74062 10.99581,-41.03657 z M 631.40063,9.9386739 c -13.21492,0 -25.73822,2.9380871 -36.97951,8.1674661 L 573.5397,-19.31377 c 17.4423,-8.636696 37.0792,-13.516676 57.86093,-13.516676 12.08589,0 23.77187,1.674791 34.87746,4.75004 1.96495,12.070005 9.13192,23.194338 20.55797,29.792419 11.40586,6.5850749 24.60634,7.237666 36.03244,2.9193202 22.22122,21.8501688 36.68072,51.5776148 38.78571,84.6835068 l -42.82977,0.623695 C 714.88293,45.094731 677.26235,9.9386739 631.40063,9.9386739 Z m 0,175.5723661 c 45.86172,0 83.4823,-35.16327 87.42381,-80.00132 l 42.82977,0.62514 c -2.10794,33.10299 -16.56737,62.83044 -38.79146,84.67916 -11.42468,-4.31546 -24.62371,-3.66141 -36.031,2.92511 -11.42468,6.59519 -18.59016,17.71807 -20.55509,29.78953 -11.10416,3.07236 -22.79014,4.74858 -34.87603,4.74858 -20.78173,0 -40.41712,-4.87852 -57.85805,-13.5181 l 20.87997,-37.41558 c 11.23985,5.22938 23.76316,8.16747 36.97808,8.16747 z m -87.7847,-87.786182 c 0,29.700012 14.75975,55.932062 37.32748,71.816532 l -21.96999,36.80485 C 532.67496,188.774 513.11029,161.9139 504.98466,130.45103 c 9.49287,-7.73721 15.55821,-19.5199 15.55821,-32.729054 0,-13.207711 -6.06677,-24.990402 -15.55964,-32.726178 8.12418,-31.464307 27.68885,-58.324409 53.98876,-75.896655 l 21.97142,36.806296 c -22.56773,15.88303 -37.32748,42.115077 -37.32748,71.819419 z M 692.91008,-8.8117109 c -14.37433,-8.2988461 -19.29612,-26.6695131 -10.99875,-41.0380161 8.29888,-14.374275 26.6695,-19.299012 41.04377,-11.000166 14.36995,8.29741 19.29325,26.669513 10.99444,41.042348 -8.296,14.3670617 -26.66957,19.29179871 -41.03946,10.9958341 z M 478.33975,127.77281 c -16.60064,0 -30.05234,-13.45025 -30.05234,-30.050834 0,-16.59626 13.4517,-30.047969 30.05234,-30.047969 16.59481,0 30.04794,13.451709 30.04794,30.047969 0,16.600584 -13.45313,30.050834 -30.04794,30.050834"
         style="fill:#282828;fill-opacity:1;fill-rule:nonzero;stroke:none;stroke-width:5.00207" /></g></g></svg>
