<?xml version="1.0" encoding="UTF-8" standalone="no"?>
<svg
   version="1.1"
   id="svg5033"
   xml:space="preserve"
   width="500"
   height="500"
   viewBox="0 0 500 500"
   sodipodi:docname="ubuntu-logo.svg"
   inkscape:version="1.4 (e7c3feb, 2024-10-09)"
   inkscape:export-filename="/home/fjall/1577101987penguin-silhouette-3-freesvg.org.png"
   inkscape:export-xdpi="96"
   inkscape:export-ydpi="96"
   xmlns:inkscape="http://www.inkscape.org/namespaces/inkscape"
   xmlns:sodipodi="http://sodipodi.sourceforge.net/DTD/sodipodi-0.dtd"
   xmlns="http://www.w3.org/2000/svg"
   xmlns:svg="http://www.w3.org/2000/svg"
   xmlns:rdf="http://www.w3.org/1999/02/22-rdf-syntax-ns#"
   xmlns:cc="http://creativecommons.org/ns#"
   xmlns:dc="http://purl.org/dc/elements/1.1/"><metadata
     id="metadata5039"><rdf:RDF><cc:Work
         rdf:about=""><dc:format>image/svg+xml</dc:format><dc:type
           rdf:resource="http://purl.org/dc/dcmitype/StillImage" /></cc:Work></rdf:RDF></metadata><defs
     id="defs5037"><marker
       style="overflow:visible"
       id="Arrow1Lstart"
       refX="0"
       refY="0"
       orient="auto"
       inkscape:stockid="Arrow1Lstart"
       inkscape:isstock="true"><path
         transform="matrix(0.8,0,0,0.8,10,0)"
         style="fill:#c53d3d;fill-opacity:0.795004;fill-rule:evenodd;stroke:none;stroke-width:1pt;stroke-opacity:1"
         d="M 0,0 5,-5 -12.5,0 5,5 Z"
         id="path2155" /></marker><clipPath
       clipPathUnits="userSpaceOnUse"
       id="clipPath5049"><path
         d="M 0,600 H 600 V 0 H 0 Z"
         id="path5047"
         inkscape:connector-curvature="0" /></clipPath><marker
       style="overflow:visible"
       id="Arrow1Lstart-5"
       refX="0"
       refY="0"
       orient="auto"
       inkscape:stockid="Arrow1Lstart"
       inkscape:isstock="true"><path
         transform="matrix(0.8,0,0,0.8,10,0)"
         style="fill:#c53d3d;fill-opacity:0.795004;fill-rule:evenodd;stroke:none;stroke-width:1pt;stroke-opacity:1"
         d="M 0,0 5,-5 -12.5,0 5,5 Z"
         id="path2155-3" /></marker><clipPath
       clipPathUnits="userSpaceOnUse"
       id="clipPath5049-5"><path
         d="M 0,600 H 600 V 0 H 0 Z"
         id="path5047-6"
         inkscape:connector-curvature="0" /></clipPath></defs><sodipodi:namedview
     pagecolor="#ffffff"
     bordercolor="#666666"
     borderopacity="1"
     objecttolerance="10"
     gridtolerance="10"
     guidetolerance="10"
     inkscape:pageopacity="0"
     inkscape:pageshadow="2"
     inkscape:window-width="1920"
     inkscape:window-height="1008"
     id="namedview5035"
     showgrid="false"
     inkscape:zoom="0.3017281"
     inkscape:cx="1161.6419"
     inkscape:cy="1126.8423"
     inkscape:window-x="0"
     inkscape:window-y="0"
     inkscape:window-maximized="1"
     inkscape:current-layer="g5041"
     inkscape:document-rotation="0"
     inkscape:snap-global="false"
     showguides="true"
     inkscape:guide-bbox="true"
     fit-margin-top="0"
     fit-margin-left="0"
     fit-margin-right="0"
     fit-margin-bottom="0"
     inkscape:showpageshadow="2"
     inkscape:pagecheckerboard="0"
     inkscape:deskcolor="#d1d1d1"><inkscape:grid
       type="xygrid"
       id="grid997"
       originx="725.49426"
       originy="-129.70111"
       spacingy="1"
       spacingx="1"
       units="px" /></sodipodi:namedview><g
     id="g5041"
     inkscape:groupmode="layer"
     inkscape:label="penguin-clipart-publicdomainvectors.org"
     transform="matrix(1.3333333,0,0,-1.3333333,725.49429,670.29889)"><path
       id="path882"
       d="m -275.77193,420.37733 c 14.37283,-8.3003 32.74638,-3.37702 41.04094,10.99149 8.29882,14.37428 3.37985,32.74639 -10.99443,41.04525 -14.37139,8.29595 -32.74351,3.37411 -41.04232,-11.00017 -8.29594,-14.36851 -3.37415,-32.74062 10.99581,-41.03657 z m -61.50508,-194.32421 c -13.21492,0 -25.73822,2.93809 -36.97951,8.16747 l -20.88142,-37.41991 c 17.4423,-8.6367 37.0792,-13.51668 57.86093,-13.51668 12.08589,0 23.77187,1.67479 34.87746,4.75004 1.96495,12.07 9.13192,23.19434 20.55797,29.79242 11.40586,6.58507 24.60634,7.23766 36.03244,2.91932 22.22122,21.85017 36.68072,51.57761 38.78571,84.68351 l -42.82977,0.62369 c -3.94151,-44.8438 -41.56209,-79.99986 -87.42381,-79.99986 z m 0,175.57237 c 45.86172,0 83.4823,-35.16327 87.42381,-80.00132 l 42.82977,0.62514 c -2.10794,33.10299 -16.56737,62.83044 -38.79146,84.67916 -11.42468,-4.31546 -24.62371,-3.66141 -36.031,2.92511 -11.42468,6.59519 -18.59016,17.71807 -20.55509,29.78953 -11.10416,3.07236 -22.79014,4.74858 -34.87603,4.74858 -20.78173,0 -40.41712,-4.87852 -57.85805,-13.5181 l 20.87997,-37.41558 c 11.23985,5.22938 23.76316,8.16747 36.97808,8.16747 z m -87.7847,-87.78619 c 0,29.70002 14.75975,55.93207 37.32748,71.81654 l -21.96999,36.80485 c -26.29846,-17.57224 -45.86313,-44.43234 -53.98876,-75.89521 9.49287,-7.73721 15.55821,-19.5199 15.55821,-32.72906 0,-13.20771 -6.06677,-24.9904 -15.55964,-32.72618 8.12418,-31.4643 27.68885,-58.32441 53.98876,-75.89665 l 21.97142,36.80629 c -22.56773,15.88303 -37.32748,42.11508 -37.32748,71.81942 z m 149.29415,-106.53657 c -14.37433,-8.29884 -19.29612,-26.66951 -10.99875,-41.03801 8.29888,-14.37428 26.6695,-19.29901 41.04377,-11.00017 14.36995,8.29741 19.29325,26.66952 10.99444,41.04235 -8.296,14.36706 -26.66957,19.2918 -41.03946,10.99583 z m -214.57033,136.58453 c -16.60064,0 -30.05234,-13.45025 -30.05234,-30.05084 0,-16.59626 13.4517,-30.04797 30.05234,-30.04797 16.59481,0 30.04794,13.45171 30.04794,30.04797 0,16.60059 -13.45313,30.05084 -30.04794,30.05084"
       style="display:inline;fill:#282828;fill-opacity:1;fill-rule:nonzero;stroke:none;stroke-width:5.00207"
       inkscape:label="path882" /></g></svg>
